<svg width="101" height="103" viewBox="0 0 101 103" fill="none" xmlns="http://www.w3.org/2000/svg">
<path d="M66.9166 23.7602C70.5457 22.3127 74.3583 25.4001 73.6969 29.2508L66.9024 68.8089C66.2557 72.5739 61.7967 74.2523 58.8279 71.8482L28.3415 47.1608C25.3727 44.7567 26.0874 40.0462 29.6356 38.6309L66.9166 23.7602Z" fill="#0CA94B"/>
<g clip-path="url(#clip0_1_76)">
<path d="M48.8729 54.1957L50.9218 51.6656L34.3733 53.4147L33.6027 53.5234C33.2399 53.573 32.8363 53.6837 32.4225 53.841L27.9322 72.6547L30.4181 76.9783L30.4238 76.9794L48.8729 54.1957Z" fill="#00D2B8"/>
<path d="M32.4225 53.841L32.4215 53.8422C32.4289 53.8404 32.4368 53.8356 32.4445 53.8348C32.4368 53.8356 32.4297 53.8375 32.4225 53.841ZM30.418 76.9783L27.9322 72.6547L32.4215 53.8422C31.1284 54.3285 29.7146 55.2527 28.9842 56.1641L23.72 62.703L25.0864 75.8683L30.4237 76.9794L30.418 76.9783Z" fill="#55DDCA"/>
<path d="M39.5306 45.7342C38.8433 45.2138 37.5831 45.6406 36.7314 46.6843L33.0548 51.1864L32.4225 53.841C32.8363 53.6837 33.2399 53.573 33.6026 53.5234L34.3733 53.4147L50.9217 51.6656L39.5306 45.7342Z" fill="#0081C6"/>
<path d="M52.6556 70.2067C52.7196 69.7697 52.744 69.3544 52.7167 68.9831L52.659 68.1627L50.9228 51.6654L30.424 76.9816L30.4242 76.9836L35.1749 78.5184L52.6556 70.2067Z" fill="#0079B3"/>
<path d="M52.6578 70.1855C52.6568 70.1946 52.6551 70.2017 52.6548 70.2076L52.6556 70.2067C52.6576 70.2015 52.6568 70.1946 52.6578 70.1855ZM51.0945 74.05C51.8454 73.1305 52.4522 71.5756 52.6548 70.2076L35.1748 78.5184L30.4242 76.9836L30.424 76.9816L32.511 81.7333L45.9919 80.327L51.0945 74.05Z" fill="#00A4E4"/>
<path d="M55.1058 69.0424L58.7476 64.5109C59.588 63.4631 59.7448 62.1411 59.0947 61.5785L50.9229 51.6654L52.659 68.1627L52.7167 68.9831C52.744 69.3544 52.7196 69.7697 52.6556 70.2067L55.1058 69.0424Z" fill="#00D2B8"/>
</g>
<defs>
<clipPath id="clip0_1_76">
<rect width="35.6188" height="35.6188" fill="white" transform="translate(57.4911 43.422) rotate(84)"/>
</clipPath>
</defs>
</svg>
